# xmcd
#
# Track frame offsets:
#	150
#	18654
#	35087
#	53217
#	67707
#	85252
#	102303
#	121111
#	145060
#	163956
#	181382
#	198562
#	224969
#	243338
#	260793
#	284764
#	307401
#
# Disc length: 4430 seconds
#
# Revision: 0
# Processed by: cddbd v1.5.2PL0 Copyright (c) Steve Scherf et al.
# Submitted via: EasyCDDAExtractor 10.0.3.1
#
DISCID=13114c11
DTITLE=Madonna - The Immaculate Collection
DYEAR=1985
DGENRE=Pop
TTITLE0=Holiday
TTITLE1=Lucky Star
TTITLE2=Borderline
TTITLE3=Like A Virgin
TTITLE4=Material Girl
TTITLE5=Crazy For You
TTITLE6=Into The Groove
TTITLE7=Live To Tell
TTITLE8=Papa Don't Preach
TTITLE9=Open Your Heart
TTITLE10=La Isla Bonita
TTITLE11=Like A Prayer
TTITLE12=Express Your Self
TTITLE13=Cherish
TTITLE14=Vogue
TTITLE15=Justify My Love
TTITLE16=Rescue Me
EXTD=
EXTT0=
EXTT1=
EXTT2=
EXTT3=
EXTT4=
EXTT5=
EXTT6=
EXTT7=
EXTT8=
EXTT9=
EXTT10=
EXTT11=
EXTT12=
EXTT13=
EXTT14=
EXTT15=
EXTT16=
PLAYORDER=
